#!OML:ASF E:\Mandelcareful walks\Project 1\Capture day 1\Session 1\Subject1.ASF
:FULLY-SPECIFIED
:DEGREES
472
root 29.7027 14.6789 -5.44769 -160.81 24.007 182.556
lowerback 23.9461 2.32221 -4.00908
upperback 5.0104 2.68725 -2.11388
thorax -7.84645 1.69375 -0.879541
lowerneck -32.9879 0.99185 -2.62131
upperneck 22.978 3.89698 -3.45767
head 13.1821 0.96634 -0.150309
rclavicle -2.0276e-014 4.37326e-015
rhumerus -19.5255 12.3581 -79.5431
rradius 74.7973
rwrist -11.874
rhand -16.5409 -19.4724
rfingers 7.12502
rthumb 9.6783 -49.2301
lclavicle -2.0276e-014 4.37326e-015
lhumerus -4.06967 -44.0758 58.7713
lradius 70.4483
lwrist 27.0486
lhand -23.4429 -13.5342
lfingers 7.12502
lthumb 3.01536 16.4242
rfemur -43.3542 -26.6471 3.55211
rtibia 58.3306
rfoot -12.2615 -5.51456
rtoes -3.51403
lfemur -59.5766 13.6057 -16.7503
ltibia 70.6762
lfoot -23.3889 0.929516
ltoes -11.507
473
root 29.8026 14.6856 -5.45272 -160.635 24.0709 182.656
lowerback 23.9674 2.22253 -4.00086
upperback 4.95124 2.55054 -1.99055
thorax -7.92656 1.62368 -0.710164
lowerneck -33.0347 1.05264 -2.70592
upperneck 23.033 4.00257 -3.37756
head 13.2096 1.01382 -0.0835487
rclavicle -4.33351e-014 7.95139e-016
rhumerus -19.6877 12.5444 -79.3791
rradius 74.9563
rwrist -11.8707
rhand -16.3376 -19.1984
rfingers 7.12502
rthumb 9.87444 -48.9469
lclavicle -4.33351e-014 7.95139e-016
lhumerus -3.27058 -44.3658 58.2198
lradius 70.4984
lwrist 27.2188
lhand -23.3826 -13.8014
lfingers 7.12502
lthumb 3.07361 16.1561
rfemur -42.0566 -24.9598 1.76117
rtibia 54.0426
rfoot -10.9792 -7.02938
rtoes -5.73736
lfemur -59.3681 13.7626 -16.2456
ltibia 70.4851
lfoot -23.4335 1.04101
ltoes -12.0289
474
root 29.9125 14.7005 -5.45178 -160.565 24.1128 182.62
lowerback 24.0722 2.15195 -3.95665
upperback 4.89028 2.4544 -1.96832
thorax -8.04608 1.57462 -0.688546
lowerneck -33.066 1.02965 -2.82299
upperneck 23.159 3.95799 -3.14137
head 13.2566 1.01364 0.0196625
rclavicle 1.43125e-014 1.19271e-014
rhumerus -19.9441 12.4007 -79.3325
rradius 75.0975
rwrist -11.8062
rhand -16.2178 -18.996
rfingers 7.12502
rthumb 9.99007 -48.7389
lclavicle 1.43125e-014 1.19271e-014
lhumerus -2.33016 -44.9543 57.4814
lradius 70.566
lwrist 27.4049
lhand -23.6087 -14.0325
lfingers 7.12502
lthumb 2.85523 15.9282
rfemur -40.7268 -23.1262 -0.149689
rtibia 49.8532
rfoot -8.7923 -8.71957
rtoes -6.35147
lfemur -59.1109 13.995 -15.9942
ltibia 70.1934
lfoot -23.3369 1.67684
ltoes -15.0288
475
root 30.033 14.7202 -5.44519 -160.501 24.1222 182.659
lowerback 24.1409 2.12325 -3.91108
upperback 4.89469 2.43384 -1.81275
thorax -8.08197 1.56328 -0.540067
lowerneck -33.07 0.998469 -2.92838
upperneck 23.1968 3.96681 -3.12658
head 13.2709 1.00947 0.0445156
rclavicle -4.13472e-014 4.65156e-014
rhumerus -20.1409 12.2199 -79.0688
rradius 75.2588
rwrist -11.7342
rhand -16.0276 -18.94
rfingers 7.12502
rthumb 10.1736 -48.6741
lclavicle -4.13472e-014 4.65156e-014
lhumerus -1.48992 -45.2418 56.9901
lradius 70.7489
lwrist 27.4376
lhand -23.5381 -14.3749
lfingers 7.12502
lthumb 2.92346 15.5848
rfemur -39.3492 -20.9579 -1.99008
rtibia 45.8297
rfoot -5.93343 -10.6775
rtoes -6.74565
lfemur -58.7999 14.2468 -15.5425
ltibia 69.8702
lfoot -23.2542 1.95795
ltoes -17.1374
476
root 30.164 14.7372 -5.42959 -160.392 24.2045 182.49
lowerback 24.0463 2.15532 -4.24817
upperback 4.90687 2.40931 -1.58064
thorax -8.04038 1.55688 -0.0809393
lowerneck -33.074 1.0626 -2.86821
upperneck 23.1504 4.16124 -3.5166
head 13.2692 1.04586 -0.0793382
rclavicle -1.23246e-014 1.59028e-014
rhumerus -20.2558 12.1822 -78.61
rradius 75.4301
rwrist -11.7957
rhand -15.8135 -18.9359
rfingers 7.12502
rthumb 10.3801 -48.6597
lclavicle -1.23246e-014 1.59028e-014
lhumerus -0.944081 -44.9865 57.0051
lradius 71.0033
lwrist 27.1361
lhand -23.3405 -14.291
lfingers 7.12502
lthumb 3.11431 15.666
rfemur -38.2533 -18.7794 -3.88917
rtibia 42.0613
rfoot -2.9136 -12.4474
rtoes -7.00753
lfemur -58.3382 14.2454 -14.8665
ltibia 69.5232
lfoot -23.5494 0.83347
ltoes -12.9328
477
root 30.3025 14.742 -5.40222 -160.277 24.2997 182.248
lowerback 24.1452 2.12157 -4.31735
upperback 4.82232 2.32858 -1.57147
thorax -8.1855 1.51745 -0.01342
lowerneck -33.049 1.08649 -2.84816
upperneck 23.1125 4.24292 -3.69152
head 13.2569 1.06028 -0.134886
rclavicle -7.15625e-015 4.37326e-015
rhumerus -20.4614 11.9421 -78.4251
rradius 75.5464
rwrist -11.9292
rhand -15.6727 -19.0002
rfingers 7.12502
rthumb 10.5159 -48.7172
lclavicle -7.15625e-015 4.37326e-015
lhumerus -0.390712 -44.8579 56.8544
lradius 71.3324
lwrist 26.9095
lhand -23.58 -13.7537
lfingers 7.12502
lthumb 2.88293 16.2065
rfemur -37.4893 -16.8812 -5.59603
rtibia 38.6804
rfoot -0.292148 -13.7557
rtoes -7.03228
lfemur -57.7929 14.1813 -14.1481
ltibia 69.1004
lfoot -23.7454 -0.56649
ltoes -6.84339
478
root 30.4471 14.7396 -5.36648 -160.199 24.2835 182.164
lowerback 24.332 2.0477 -4.18114
upperback 4.81218 2.26375 -1.46279
thorax -8.29168 1.48472 0.0407232
lowerneck -33.0891 1.01101 -3.14146
upperneck 23.0044 4.26738 -3.6522
head 13.2134 1.05357 -0.066886
rclavicle 6.75868e-015 2.06736e-014
rhumerus -20.5285 11.751 -78.0397
rradius 75.6193
rwrist -12.0808
rhand -15.3806 -18.9838
rfingers 7.12502
rthumb 10.7977 -48.6863
lclavicle 6.75868e-015 2.06736e-014
lhumerus 0.364791 -44.7214 56.6268
lradius 71.5258
lwrist 27.0739
lhand -24.0574 -13.4556
lfingers 7.12502
lthumb 2.42188 16.5104
rfemur -36.8895 -15.0967 -6.93299
rtibia 35.8167
rfoot 1.77263 -14.6437
rtoes -6.98913
lfemur -57.6388 14.437 -13.9198
ltibia 68.4757
lfoot -23.2708 1.01118
ltoes -14.0367
479
root 30.6072 14.7343 -5.32639 -160.175 24.1641 182.005
lowerback 24.5199 1.88429 -3.92586
upperback 4.80961 2.10723 -1.49394
thorax -8.37781 1.40668 -0.0978219
lowerneck -33.1165 1.05039 -3.12277
upperneck 22.8932 4.3155 -3.68614
head 13.1742 1.07373 -0.0736509
rclavicle 9.14409e-015 2.06736e-014
rhumerus -20.6529 11.4554 -77.9577
rradius 75.694
rwrist -12.0987
rhand -15.2598 -18.9247
rfingers 7.12502
rthumb 10.9142 -48.621
lclavicle 9.14409e-015 2.06736e-014
lhumerus 1.12507 -44.5214 56.1497
lradius 71.7108
lwrist 27.3293
lhand -24.3568 -13.6493
lfingers 7.12502
lthumb 2.1328 16.3198
rfemur -36.4147 -13.6362 -8.02413
rtibia 33.4006
rfoot 3.75304 -14.51
rtoes -8.92204
lfemur -57.9114 14.9648 -14.2736
ltibia 67.849
lfoot -22.0465 5.01092
ltoes -30.7059
480
root 30.7825 14.7294 -5.28219 -160.189 23.9082 181.793
lowerback 24.6551 1.76377 -3.75157
upperback 4.85279 2.00547 -1.40905
thorax -8.39484 1.3581 -0.0758159
lowerneck -33.1261 1.03318 -3.15582
upperneck 22.7803 4.36748 -3.87593
head 13.1371 1.07063 -0.132242
rclavicle -2.5842e-014 3.57812e-014
rhumerus -20.7979 11.2132 -77.6718
rradius 75.8041
rwrist -12.3058
rhand -15.6596 -19.1535
rfingers 7.12502
rthumb 10.5285 -48.8698
lclavicle -2.5842e-014 3.57812e-014
lhumerus 1.80038 -44.0941 56.1273
lradius 71.9029
lwrist 27.2556
lhand -24.2431 -14.2866
lfingers 7.12502
lthumb 2.2426 15.6814
rfemur -36.1265 -12.6554 -8.772
rtibia 31.7805
rfoot 4.82009 -13.5361
rtoes -12.3413
lfemur -58.2582 15.5535 -14.7231
ltibia 67.2434
lfoot -20.0865 8.80154
ltoes -43.0191
481
root 30.962 14.7589 -5.2349 -160.353 23.5024 181.528
lowerback 24.9143 1.56364 -3.5675
upperback 4.91538 1.8067 -1.32067
thorax -8.45103 1.26687 -0.0287562
lowerneck -33.1032 1.02795 -3.10826
upperneck 22.6888 4.41884 -4.13222
head 13.1073 1.06515 -0.229926
rclavicle -3.22031e-014 -1.66979e-014
rhumerus -20.9243 11.1055 -77.4391
rradius 75.8736
rwrist -12.4855
rhand -16.1572 -19.3566
rfingers 7.12502
rthumb 10.0485 -49.0967
lclavicle -3.22031e-014 -1.66979e-014
lhumerus 2.24189 -43.6783 56.0944
lradius 72.2251
lwrist 27.0826
lhand -24.0763 -14.7151
lfingers 7.12502
lthumb 2.40368 15.2511
rfemur -35.9102 -12.1886 -9.11622
rtibia 31.1789
rfoot 4.36935 -12.7131
rtoes -15.2431
lfemur -56.828 14.0448 -11.7965
ltibia 67.0352
lfoot -22.5133 0.75271
ltoes -14.6817
482
root 31.1486 14.7332 -5.17001 -160.299 23.4624 181.243
lowerback 24.9964 1.40974 -3.43916
upperback 4.86249 1.62245 -1.39856
thorax -8.54226 1.17502 -0.133633
lowerneck -33.0752 1.13244 -2.84732
upperneck 22.6726 4.52454 -4.40535
head 13.1125 1.09652 -0.357779
rclavicle -3.49861e-014 5.00937e-014
rhumerus -21.0447 10.9771 -77.4308
rradius 75.874
rwrist -12.3914
rhand -16.3398 -19.2824
rfingers 7.12502
rthumb 9.87237 -49.0309
lclavicle -3.49861e-014 5.00937e-014
lhumerus 2.49778 -43.3266 55.8941
lradius 72.5149
lwrist 27.0496
lhand -23.917 -15.3134
lfingers 7.12502
lthumb 2.55755 14.651
rfemur -36.7163 -12.6989 -8.93249
rtibia 31.904
rfoot 3.6184 -11.8578
rtoes -18.9317
lfemur -56.9009 14.1726 -11.3524
ltibia 66.7423
lfoot -22.1882 1.19931
ltoes -16.5527
483
root 31.3644 14.7152 -5.1073 -160.802 23.0936 180.718
lowerback 25.532 1.16933 -3.42126
upperback 4.89989 1.30789 -1.54375
thorax -8.76288 1.03815 -0.22037
lowerneck -32.9957 1.27908 -2.49909
upperneck 22.7053 4.60103 -4.55296
head 13.1249 1.13903 -0.456811
rclavicle -3.97569e-016 -1.27222e-014
rhumerus -21.2829 10.7693 -77.5397
rradius 75.8801
rwrist -12.2559
rhand -16.1862 -19.283
rfingers 7.12502
rthumb 10.0205 -49.0245
lclavicle -3.97569e-016 -1.27222e-014
lhumerus 2.80582 -43.0997 55.6163
lradius 72.7958
lwrist 27.2333
lhand -23.8461 -15.6049
lfingers 7.12502
lthumb 2.62597 14.3587
rfemur -36.9752 -13.7893 -8.48057
rtibia 33.7054
rfoot 2.32193 -10.9055
rtoes -22.3504
lfemur -56.3043 14.2308 -10.9742
ltibia 66.3496
lfoot -21.9082 1.62817
ltoes -19.7359
484
root 31.5835 14.6816 -5.02371 -160.92 22.976 180.134
lowerback 25.4691 1.24092 -4.15836
upperback 4.96976 1.24572 -1.25418
thorax -8.66597 1.03111 0.545704
lowerneck -32.9447 1.34058 -2.72192
upperneck 22.5527 4.83763 -4.69668
head 13.0589 1.21017 -0.428509
rclavicle 4.33351e-014 -2.78299e-015
rhumerus -21.2626 10.9389 -76.8638
rradius 75.8883
rwrist -12.2989
rhand -15.8573 -19.4322
rfingers 7.12502
rthumb 10.3378 -49.1581
lclavicle 4.33351e-014 -2.78299e-015
lhumerus 3.05682 -42.545 56.1305
lradius 73.1504
lwrist 27.2403
lhand -24.1011 -14.7431
lfingers 7.12502
lthumb 2.37973 15.2234
rfemur -38.2331 -15.2029 -7.89342
rtibia 36.3353
rfoot 0.628135 -9.31409
rtoes -23.4651
lfemur -56.1577 14.3604 -10.6714
ltibia 65.865
lfoot -21.4269 1.98858
ltoes -21.7854
485
root 31.8152 14.6513 -4.93353 -161.324 22.6218 179.387
lowerback 25.8793 1.04175 -4.34571
upperback 4.98579 0.927296 -1.39553
thorax -8.84249 0.896775 0.589314
lowerneck -32.7872 1.42328 -2.70106
upperneck 22.344 4.84039 -4.49046
head 12.936 1.25006 -0.351202
rclavicle -2.92213e-014 1.94809e-014
rhumerus -21.3797 10.804 -76.8678
rradius 75.7997
rwrist -12.1747
rhand -15.6594 -19.5043
rfingers 7.12502
rthumb 10.5288 -49.2206
lclavicle -2.92213e-014 1.94809e-014
lhumerus 3.32456 -42.3234 55.8489
lradius 73.6542
lwrist 27.3727
lhand -24.4463 -14.0696
lfingers 7.12502
lthumb 2.04638 15.9004
rfemur -39.444 -16.8387 -7.30363
rtibia 39.2625
rfoot -1.28118 -7.54963
rtoes -23.9017
lfemur -55.6789 14.029 -10.1929
ltibia 65.1799
lfoot -20.9 1.98859
ltoes -22.258
486
root 32.0488 14.6193 -4.84858 -161.751 22.1306 178.683
lowerback 26.195 0.833523 -4.27401
upperback 5.07068 0.683207 -1.52763
thorax -8.89489 0.792375 0.475384
lowerneck -32.5529 1.37831 -2.65345
upperneck 22.0332 4.74611 -4.57657
head 12.7712 1.2154 -0.411335
rclavicle 7.95139e-015 4.96962e-015
rhumerus -21.5094 10.4328 -76.7285
rradius 75.6445
rwrist -11.9655
rhand -15.5566 -19.4681
rfingers 7.12502
rthumb 10.6278 -49.1793
lclavicle 7.95139e-015 4.96962e-015
lhumerus 3.83916 -42.3175 55.5302
lradius 74.0513
lwrist 27.6223
lhand -24.7439 -13.9193
lfingers 7.12502
lthumb 1.7589 16.0532
rfemur -40.6956 -18.5227 -6.64575
rtibia 42.1072
rfoot -3.01559 -6.17803
rtoes -24.4762
lfemur -55.1457 13.3745 -9.53779
ltibia 64.4553
lfoot -20.447 1.93291
ltoes -21.762
